<?xml version="1.0" encoding="UTF-8"?> <svg xmlns="http://www.w3.org/2000/svg" width="56" height="62" viewBox="0 0 56 62" fill="none"> <path d="M52.8387 17.0562H9.44747C7.75876 17.0562 6.38236 18.3873 6.29234 20.0711H7.49433C7.58447 19.0621 8.43189 18.2719 9.44759 18.2719H52.8389C53.9207 18.2719 54.7981 19.1654 54.7981 20.2596V41.8017H7.4822V35.0485H6.28021V46.9805C6.28021 48.7432 7.6985 50.1839 9.44747 50.1839H52.8387C54.5816 50.1839 56 48.7434 56 46.9805V20.2596C55.9999 18.4906 54.5816 17.0562 52.8387 17.0562ZM43.7816 46.599H42.8096C42.4777 46.599 42.2086 46.3271 42.2086 45.9911C42.2086 45.6552 42.4777 45.3833 42.8096 45.3833H43.7816C44.1135 45.3833 44.3826 45.6552 44.3826 45.9911C44.3826 46.3271 44.1134 46.599 43.7816 46.599ZM47.5969 46.599H46.625C46.2931 46.599 46.024 46.3271 46.024 45.9911C46.024 45.6552 46.2931 45.3833 46.625 45.3833H47.5969C47.9289 45.3833 48.1979 45.6552 48.1979 45.9911C48.1979 46.3271 47.9289 46.599 47.5969 46.599ZM51.4125 46.599H50.4405C50.1086 46.599 49.8395 46.3271 49.8395 45.9911C49.8395 45.6552 50.1086 45.3833 50.4405 45.3833H51.4125C51.7444 45.3833 52.0135 45.6552 52.0135 45.9911C52.0135 46.3271 51.7443 46.599 51.4125 46.599Z" fill="black"></path> <path d="M44.3109 60.7843H41.1557L37.4056 55.338V51.3992H24.875V55.3502L21.1249 60.7843H17.9756C17.6451 60.7843 17.3746 61.0517 17.3746 61.3922C17.3746 61.7265 17.6451 62 17.9756 62H44.3109C44.6414 62 44.9119 61.7265 44.9119 61.3922C44.9119 61.0517 44.6414 60.7843 44.3109 60.7843Z" fill="black"></path> <path d="M35.1321 7.34358C35.1321 9.2401 34.4041 11.0216 33.082 12.3583C32.8472 12.5958 32.8472 12.9804 33.082 13.2178C33.1994 13.3365 33.3532 13.3958 33.507 13.3958C33.6608 13.3958 33.8146 13.3365 33.932 13.2178C35.4811 11.6513 36.3342 9.56534 36.3342 7.34345C36.3342 5.12219 35.4811 3.03624 33.932 1.46912C33.6972 1.23165 33.3168 1.23165 33.0822 1.46912C32.8474 1.7066 32.8474 2.09127 33.0822 2.32862C34.4041 3.66623 35.1321 5.44705 35.1321 7.34358Z" fill="black"></path> <path d="M30.955 11.0656C31.0724 11.1843 31.2262 11.2436 31.3799 11.2436C31.5337 11.2436 31.6875 11.1843 31.8049 11.0656C32.7865 10.0731 33.3273 8.75113 33.3273 7.34372C33.3273 5.93567 32.7865 4.61374 31.8049 3.62122C31.5701 3.38375 31.1898 3.38375 30.9551 3.62122C30.7203 3.8587 30.7203 4.24337 30.9551 4.48072C31.7099 5.24411 32.1253 6.26028 32.1253 7.34359C32.1253 8.42627 31.7098 9.44257 30.9551 10.206C30.7203 10.4434 30.7203 10.8281 30.955 11.0656Z" fill="black"></path> <path d="M28.8273 8.91425C28.9447 9.03299 29.0985 9.0923 29.2523 9.0923C29.406 9.0923 29.5601 9.03299 29.6772 8.91425C30.5329 8.04818 30.5329 6.63964 29.6772 5.77357C29.443 5.53609 29.0621 5.53609 28.8274 5.77357C28.5927 6.01104 28.5926 6.39571 28.8274 6.63306C29.2147 7.02481 29.2147 7.66301 28.8274 8.05476C28.5926 8.29211 28.5926 8.67678 28.8273 8.91425Z" fill="black"></path> <path d="M4.73905 13.3961C4.89283 13.3961 5.04661 13.3368 5.16401 13.2181C5.39881 12.9806 5.39881 12.5959 5.16401 12.3586C3.842 11.0217 3.11398 9.2409 3.11398 7.34375C3.11373 5.44722 3.84175 3.6664 5.16376 2.32955C5.39856 2.09207 5.39856 1.7074 5.16376 1.47005C4.92896 1.2327 4.54864 1.23258 4.31397 1.47005C2.76478 3.03654 1.91174 5.12249 1.91199 7.34438C1.91199 9.56563 2.76503 11.6516 4.31422 13.2181C4.43149 13.3367 4.58527 13.3961 4.73905 13.3961Z" fill="black"></path> <path d="M6.44211 11.0655C6.55951 11.1842 6.71329 11.2435 6.86707 11.2435C7.02085 11.2435 7.17463 11.1842 7.29203 11.0655C7.52683 10.828 7.52683 10.4433 7.29203 10.206C6.53726 9.44257 6.12142 8.42577 6.12142 7.34308C6.12142 6.2604 6.53701 5.24411 7.29166 4.48072C7.52645 4.24324 7.52645 3.85857 7.29166 3.62122C7.05686 3.38375 6.67653 3.38375 6.44186 3.62122C5.46029 4.61374 4.91943 5.93567 4.91943 7.34308C4.91968 8.75037 5.46017 10.0723 6.44211 11.0655Z" fill="black"></path> <path d="M8.9942 9.09225C9.14798 9.09225 9.30176 9.03295 9.41916 8.91421C9.65396 8.67673 9.65396 8.29206 9.41941 8.05471C9.03171 7.66296 9.03171 7.02476 9.41941 6.63301C9.65383 6.39554 9.65383 6.01087 9.41916 5.77352C9.18449 5.53617 8.80354 5.53604 8.56937 5.77352C7.71369 6.63959 7.71369 8.04814 8.56937 8.91421C8.68639 9.03295 8.84042 9.09225 8.9942 9.09225Z" fill="black"></path> <path d="M19.1236 14.6917C23.1261 14.6917 26.3835 11.391 26.3835 7.34281C26.3835 3.29458 23.1261 0 19.1236 0C15.121 0 11.8636 3.29458 11.8636 7.34281C11.8636 11.391 15.121 14.6917 19.1236 14.6917ZM17.1883 4.88105C17.1883 4.66216 17.3085 4.4616 17.4948 4.35222C17.6811 4.24284 17.9155 4.24891 18.1018 4.35829L22.1284 6.82613C22.3087 6.93551 22.4229 7.12999 22.4229 7.34281C22.4229 7.55551 22.3087 7.75618 22.1284 7.86556L18.1019 10.3273C18.0057 10.3882 17.8976 10.4124 17.7895 10.4124C17.6873 10.4124 17.5852 10.3882 17.4949 10.3334C17.3086 10.2301 17.1885 10.0233 17.1885 9.80458V4.88105H17.1883Z" fill="black"></path> <path d="M32.4112 39.3761V40.5858H52.0154V39.3761C52.0154 36.0937 49.3771 33.4253 46.1377 33.4253H38.2949C35.0495 33.4253 32.4112 36.0937 32.4112 39.3761ZM44.3768 34.6409L42.3456 38.7378C42.3155 38.8108 42.2554 38.8229 42.2133 38.8229C42.1711 38.8229 42.1111 38.8108 42.0811 38.7378L40.0558 34.6409H44.3768Z" fill="black"></path> <path d="M42.213 32.1125C44.8934 32.1125 46.8285 28.4351 46.8285 25.9551C46.8285 23.3779 44.7611 21.2869 42.213 21.2869C39.6708 21.2869 37.5974 23.3779 37.5974 25.9551C37.5974 28.4351 39.5385 32.1125 42.213 32.1125Z" fill="black"></path> <path d="M30.8486 33.4619C30.9388 33.237 30.8908 32.9757 30.7164 32.7994L27.2667 29.274V26.3745C27.2667 23.5663 25.007 21.2869 22.2304 21.2869H5.03625C2.2597 21.2869 0 23.5663 0 26.3745V28.7451C0 31.5534 2.2597 33.8328 5.03625 33.8328H30.2898C30.5361 33.8327 30.7525 33.6869 30.8486 33.4619ZM19.2033 30.1302H8.06423C7.73229 30.1302 7.46324 29.8583 7.46324 29.5223C7.46324 29.1863 7.73229 28.9144 8.06423 28.9144H19.2033C19.5353 28.9144 19.8043 29.1863 19.8043 29.5223C19.8043 29.8583 19.5353 30.1302 19.2033 30.1302ZM19.2033 26.2237H8.06423C7.73229 26.2237 7.46324 25.9518 7.46324 25.6158C7.46324 25.2798 7.73229 25.008 8.06423 25.008H19.2033C19.5353 25.008 19.8043 25.2798 19.8043 25.6158C19.8043 25.9518 19.5353 26.2237 19.2033 26.2237Z" fill="black"></path> </svg> 