<?xml version="1.0" encoding="UTF-8"?> <svg xmlns="http://www.w3.org/2000/svg" width="64" height="62" viewBox="0 0 64 62" fill="none"> <path d="M49.7975 51.1869V26.3646C49.3896 26.322 48.9818 26.2553 48.58 26.1702V51.181H49.6696C49.7123 51.1809 49.7549 51.1809 49.7975 51.1869Z" fill="black"></path> <path d="M37.7502 22.6206H34.2438C34.2377 23.0097 34.2012 23.4168 34.1282 23.8362H37.1232L37.7502 22.6206Z" fill="black"></path> <path d="M3.05096 25.1915V51.1809H4.26849V25.1915C4.26849 24.444 4.87118 23.8362 5.62 23.8362H18.7204C18.6473 23.4168 18.6108 23.0097 18.6048 22.6206H5.62C4.20162 22.6206 3.05096 23.7754 3.05096 25.1915Z" fill="black"></path> <path d="M49.6696 52.3967H37.1414C35.9056 52.3967 34.8221 53.272 34.5603 54.4815C34.4265 55.1318 33.842 55.6059 33.1723 55.6059H19.6701C19.0067 55.6059 18.4222 55.1319 18.2822 54.4815C18.0265 53.272 16.9429 52.3967 15.7011 52.3967H3.17287C2.19887 52.3967 1.29187 52.8343 0.689187 53.5941C0.0804242 54.3539 -0.138665 55.3385 0.086503 56.2806L0.847489 59.5505C1.18841 60.9911 2.45456 61.9999 3.93994 61.9999H48.9086C50.3879 61.9999 51.6602 60.9911 51.995 59.5505L52.7621 56.2806C52.9812 55.3385 52.7621 54.3539 52.1533 53.5941C51.5506 52.8343 50.6436 52.3967 49.6696 52.3967ZM42.3669 57.8037H41.8788C41.5423 57.8037 41.27 57.5316 41.27 57.1959C41.27 56.8602 41.5423 56.5881 41.8788 56.5881H42.3669C42.7034 56.5881 42.9756 56.8602 42.9756 57.1959C42.9756 57.5315 42.7034 57.8037 42.3669 57.8037ZM45.5301 57.8037H45.0427C44.7062 57.8037 44.4339 57.5316 44.4339 57.1959C44.4339 56.8602 44.7062 56.5881 45.0427 56.5881H45.5301C45.8666 56.5881 46.1389 56.8602 46.1389 57.1959C46.1389 57.5315 45.8666 57.8037 45.5301 57.8037ZM48.694 57.8037H48.2065C47.87 57.8037 47.5978 57.5316 47.5978 57.1959C47.5978 56.8602 47.87 56.5881 48.2065 56.5881H48.694C49.0305 56.5881 49.3027 56.8602 49.3027 57.1959C49.3027 57.5315 49.0305 57.8037 48.694 57.8037Z" fill="black"></path> <path d="M32.2776 33.7614H20.5652C15.8839 33.7614 12.0731 37.5661 12.0731 42.2401V46.1057H9.68677C9.35193 46.1057 9.078 46.3792 9.078 46.7135C9.078 47.0478 9.35193 47.3213 9.68677 47.3213H43.1561C43.4909 47.3213 43.7648 47.0478 43.7648 46.7135C43.7648 46.3792 43.4909 46.1057 43.1561 46.1057H40.7759V42.2401C40.7759 37.5661 36.9651 33.7614 32.2776 33.7614ZM26.8841 41.4318C26.7562 41.6931 26.5189 41.7174 26.4215 41.7174C26.3241 41.7174 26.0927 41.6931 25.9649 41.4318L22.7264 34.977H30.1166L26.8841 41.4318Z" fill="black"></path> <path d="M19.8162 22.4505C19.8162 25.9088 22.653 31.2391 26.4212 31.2391C30.1955 31.2391 33.0322 25.9088 33.0322 22.4505C33.0322 18.8098 30.0676 15.8499 26.4212 15.8499C22.7808 15.8499 19.8162 18.8097 19.8162 22.4505Z" fill="black"></path> <path d="M63.9695 11.7714C63.5555 5.45031 58.4663 0.399489 52.1292 0.0226942C48.5984 -0.183911 45.2503 1.0255 42.6934 3.43243C40.1306 5.84531 38.7183 9.10927 38.7183 12.6223C38.7183 15.0717 39.4184 17.4361 40.7515 19.4782L37.9026 24.9848C37.653 25.4649 37.7382 26.0303 38.1279 26.4192C38.3714 26.6623 38.6757 26.7839 38.9923 26.7839C39.1871 26.7839 39.3819 26.7412 39.5646 26.6441L45.3051 23.6963C47.1497 24.7052 49.2377 25.2401 51.3562 25.2401C54.8383 25.2401 58.2047 23.7814 60.5849 21.2469C62.8068 18.8765 64 15.8496 64 12.6284C64 12.3427 63.9878 12.0571 63.9695 11.7714ZM51.5561 16.3083H47.812C47.4755 16.3083 47.2032 16.0362 47.2032 15.7005C47.2032 15.3648 47.4755 15.0927 47.812 15.0927H51.5561C51.8926 15.0927 52.1649 15.3648 52.1649 15.7005C52.1649 16.0362 51.8926 16.3083 51.5561 16.3083ZM56.7318 11.6928H47.8121C47.4756 11.6928 47.2034 11.4207 47.2034 11.085C47.2034 10.7493 47.4756 10.4772 47.8121 10.4772H56.7318C57.0683 10.4772 57.3406 10.7493 57.3406 11.085C57.3406 11.4207 57.0683 11.6928 56.7318 11.6928Z" fill="black"></path> <path d="M3.32114 10.9423C5.65273 8.61502 8.75708 7.33316 12.063 7.33316C15.3696 7.33316 18.474 8.61489 20.8049 10.9423C20.9239 11.061 21.0796 11.1203 21.2354 11.1203C21.3912 11.1203 21.5469 11.061 21.6658 10.9423C21.9037 10.7048 21.9037 10.3202 21.6658 10.0829C19.1048 7.52585 15.6949 6.11768 12.063 6.11768C8.43186 6.11768 5.0213 7.52585 2.46023 10.0829C2.2224 10.3203 2.2224 10.705 2.46023 10.9423C2.69819 11.1796 3.08343 11.1796 3.32114 10.9423Z" fill="black"></path> <path d="M17.6098 14.74C17.7656 14.74 17.9213 14.6807 18.0403 14.562C18.2781 14.3246 18.2781 13.9399 18.0403 13.7026C14.7444 10.4122 9.38155 10.4117 6.08572 13.7026C5.84789 13.9401 5.84789 14.3247 6.08572 14.562C6.32355 14.7995 6.7088 14.7995 6.9465 14.562C9.76857 11.745 14.3585 11.7462 17.1795 14.562C17.2983 14.6807 17.454 14.74 17.6098 14.74Z" fill="black"></path> <path d="M9.71121 17.3224C9.47338 17.5598 9.47338 17.9445 9.71121 18.1818C9.94904 18.4193 10.3343 18.4193 10.572 18.1818C11.3948 17.3603 12.7317 17.3609 13.5545 18.1818C13.6734 18.3005 13.8292 18.3598 13.985 18.3598C14.1407 18.3598 14.2965 18.3005 14.4154 18.1818C14.6532 17.9443 14.6532 17.5597 14.4154 17.3224C13.1176 16.027 11.0078 16.0276 9.71121 17.3224Z" fill="black"></path> </svg> 