<?xml version="1.0" encoding="UTF-8"?> <svg xmlns="http://www.w3.org/2000/svg" width="64" height="62" viewBox="0 0 64 62" fill="none"> <path d="M59.6078 6.22266H40.1694C40.1882 6.42673 40.1944 6.63093 40.1944 6.84118C40.1944 7.05143 40.1882 7.25563 40.1694 7.4597H59.6078C61.3395 7.4597 62.7451 8.84511 62.7451 10.5523V41.9666H1.25492V10.5523C1.25492 8.84523 2.66673 7.4597 4.39221 7.4597H23.8432C23.8181 7.25563 23.8118 7.05156 23.8118 6.84118C23.8118 6.63093 23.8181 6.42673 23.8432 6.22266H4.39221C1.97022 6.22266 0 8.16482 0 10.5523V47.0446C0 49.4321 1.97022 51.3743 4.39221 51.3743H59.6078C62.0298 51.3743 64 49.4321 64 47.0446V10.5523C64 8.16482 62.0298 6.22266 59.6078 6.22266ZM33.6139 47.286H30.3908C30.044 47.286 29.7634 47.0091 29.7634 46.6675C29.7634 46.3259 30.044 46.049 30.3908 46.049H33.6139C33.9607 46.049 34.2413 46.3259 34.2413 46.6675C34.2413 47.0091 33.9607 47.286 33.6139 47.286Z" fill="url(#paint0_radial_2539_415)"></path> <path d="M59.6078 6.22266H40.1694C40.1882 6.42673 40.1944 6.63093 40.1944 6.84118C40.1944 7.05143 40.1882 7.25563 40.1694 7.4597H59.6078C61.3395 7.4597 62.7451 8.84511 62.7451 10.5523V41.9666H1.25492V10.5523C1.25492 8.84523 2.66673 7.4597 4.39221 7.4597H23.8432C23.8181 7.25563 23.8118 7.05156 23.8118 6.84118C23.8118 6.63093 23.8181 6.42673 23.8432 6.22266H4.39221C1.97022 6.22266 0 8.16482 0 10.5523V47.0446C0 49.4321 1.97022 51.3743 4.39221 51.3743H59.6078C62.0298 51.3743 64 49.4321 64 47.0446V10.5523C64 8.16482 62.0298 6.22266 59.6078 6.22266ZM33.6139 47.286H30.3908C30.044 47.286 29.7634 47.0091 29.7634 46.6675C29.7634 46.3259 30.044 46.049 30.3908 46.049H33.6139C33.9607 46.049 34.2413 46.3259 34.2413 46.6675C34.2413 47.0091 33.9607 47.286 33.6139 47.286Z" fill="black"></path> <path d="M22.2687 11.1891C22.2687 10.8427 21.9927 10.5706 21.6413 10.5706H8.56514C8.22002 10.5706 7.93768 10.8427 7.93768 11.1891V22.4831C7.93768 22.8295 8.22002 23.1016 8.56514 23.1016H21.6413C21.9927 23.1016 22.2687 22.8295 22.2687 22.4831V11.1891ZM21.0138 21.8646H19.4326C19.2631 21.042 18.8491 20.2749 18.2342 19.6688C17.3934 18.8462 16.2827 18.3947 15.1031 18.3947C13.9298 18.3947 12.8193 18.8462 11.9721 19.6688C11.3572 20.2749 10.9494 21.042 10.7737 21.8646H9.1926V11.8075H21.0138V21.8646Z" fill="url(#paint1_radial_2539_415)"></path> <path d="M22.2687 11.1891C22.2687 10.8427 21.9927 10.5706 21.6413 10.5706H8.56514C8.22002 10.5706 7.93768 10.8427 7.93768 11.1891V22.4831C7.93768 22.8295 8.22002 23.1016 8.56514 23.1016H21.6413C21.9927 23.1016 22.2687 22.8295 22.2687 22.4831V11.1891ZM21.0138 21.8646H19.4326C19.2631 21.042 18.8491 20.2749 18.2342 19.6688C17.3934 18.8462 16.2827 18.3947 15.1031 18.3947C13.9298 18.3947 12.8193 18.8462 11.9721 19.6688C11.3572 20.2749 10.9494 21.042 10.7737 21.8646H9.1926V11.8075H21.0138V21.8646Z" fill="black"></path> <path d="M15.0968 17.7326C16.5336 17.7326 17.707 16.5883 17.707 15.172C17.707 13.7618 16.5336 12.6113 15.0968 12.6113C13.6662 12.6113 12.4991 13.7618 12.4991 15.172C12.4992 16.5883 13.6662 17.7326 15.0968 17.7326Z" fill="url(#paint2_radial_2539_415)"></path> <path d="M15.0968 17.7326C16.5336 17.7326 17.707 16.5883 17.707 15.172C17.707 13.7618 16.5336 12.6113 15.0968 12.6113C13.6662 12.6113 12.4991 13.7618 12.4991 15.172C12.4992 16.5883 13.6662 17.7326 15.0968 17.7326Z" fill="black"></path> <path d="M21.6413 26.3181H8.56514C8.21375 26.3181 7.93768 26.5903 7.93768 26.9366V38.2308C7.93768 38.5771 8.21375 38.8493 8.56514 38.8493H21.6413C21.9864 38.8493 22.2687 38.5771 22.2687 38.2308V26.9366C22.2687 26.5904 21.9863 26.3181 21.6413 26.3181ZM21.0138 37.6122H19.4326C19.2569 36.7896 18.8491 36.0226 18.2279 35.4165C17.3934 34.5939 16.2827 34.1424 15.1031 34.1424C13.9235 34.1424 12.813 34.5939 11.9721 35.4165C11.3572 36.0226 10.9431 36.7895 10.7737 37.6122H9.1926V27.5552H21.0138V37.6122Z" fill="url(#paint3_radial_2539_415)"></path> <path d="M21.6413 26.3181H8.56514C8.21375 26.3181 7.93768 26.5903 7.93768 26.9366V38.2308C7.93768 38.5771 8.21375 38.8493 8.56514 38.8493H21.6413C21.9864 38.8493 22.2687 38.5771 22.2687 38.2308V26.9366C22.2687 26.5904 21.9863 26.3181 21.6413 26.3181ZM21.0138 37.6122H19.4326C19.2569 36.7896 18.8491 36.0226 18.2279 35.4165C17.3934 34.5939 16.2827 34.1424 15.1031 34.1424C13.9235 34.1424 12.813 34.5939 11.9721 35.4165C11.3572 36.0226 10.9431 36.7895 10.7737 37.6122H9.1926V27.5552H21.0138V37.6122Z" fill="black"></path> <path d="M15.0968 33.48C16.5336 33.48 17.7007 32.3357 17.7007 30.9193C17.7007 29.5091 16.5336 28.3586 15.0968 28.3586C13.6662 28.3586 12.4991 29.5091 12.4991 30.9193C12.4992 32.3357 13.6662 33.48 15.0968 33.48Z" fill="url(#paint4_radial_2539_415)"></path> <path d="M15.0968 33.48C16.5336 33.48 17.7007 32.3357 17.7007 30.9193C17.7007 29.5091 16.5336 28.3586 15.0968 28.3586C13.6662 28.3586 12.4991 29.5091 12.4991 30.9193C12.4992 32.3357 13.6662 33.48 15.0968 33.48Z" fill="black"></path> <path d="M42.3653 23.1016H55.4414C55.7928 23.1016 56.0689 22.8295 56.0689 22.4831V11.1891C56.0689 10.8427 55.7928 10.5706 55.4414 10.5706H42.3653C42.0202 10.5706 41.7379 10.8427 41.7379 11.1891V22.4831C41.7379 22.8296 42.0202 23.1016 42.3653 23.1016ZM42.9928 11.8076H54.814V21.8647H53.2327C53.0633 21.0421 52.6493 20.2751 52.0343 19.6689C51.1936 18.8463 50.0829 18.3948 48.9033 18.3948C47.73 18.3948 46.6132 18.8463 45.7723 19.6689C45.1574 20.2751 44.7496 21.0421 44.5739 21.8647H42.9926L42.9928 11.8076Z" fill="url(#paint5_radial_2539_415)"></path> <path d="M42.3653 23.1016H55.4414C55.7928 23.1016 56.0689 22.8295 56.0689 22.4831V11.1891C56.0689 10.8427 55.7928 10.5706 55.4414 10.5706H42.3653C42.0202 10.5706 41.7379 10.8427 41.7379 11.1891V22.4831C41.7379 22.8296 42.0202 23.1016 42.3653 23.1016ZM42.9928 11.8076H54.814V21.8647H53.2327C53.0633 21.0421 52.6493 20.2751 52.0343 19.6689C51.1936 18.8463 50.0829 18.3948 48.9033 18.3948C47.73 18.3948 46.6132 18.8463 45.7723 19.6689C45.1574 20.2751 44.7496 21.0421 44.5739 21.8647H42.9926L42.9928 11.8076Z" fill="black"></path> <path d="M48.8969 17.7326C50.3338 17.7326 51.5008 16.5883 51.5008 15.172C51.5008 13.7618 50.3338 12.6113 48.8969 12.6113C47.4663 12.6113 46.2992 13.7618 46.2992 15.172C46.2992 16.5883 47.4663 17.7326 48.8969 17.7326Z" fill="url(#paint6_radial_2539_415)"></path> <path d="M48.8969 17.7326C50.3338 17.7326 51.5008 16.5883 51.5008 15.172C51.5008 13.7618 50.3338 12.6113 48.8969 12.6113C47.4663 12.6113 46.2992 13.7618 46.2992 15.172C46.2992 16.5883 47.4663 17.7326 48.8969 17.7326Z" fill="black"></path> <path d="M41.7379 38.2308C41.7379 38.5771 42.0139 38.8493 42.3653 38.8493H55.4414C55.7866 38.8493 56.0689 38.5771 56.0689 38.2308V26.9366C56.0689 26.5903 55.7866 26.3181 55.4414 26.3181H42.3653C42.0139 26.3181 41.7379 26.5903 41.7379 26.9366V38.2308ZM42.9928 27.5552H54.814V37.6122H53.2327C53.057 36.7896 52.6493 36.0226 52.0281 35.4165C51.1873 34.5939 50.0768 34.1424 48.9033 34.1424C47.7237 34.1424 46.6132 34.5939 45.7723 35.4165C45.1574 36.0226 44.7433 36.7895 44.5739 37.6122H42.9926L42.9928 27.5552Z" fill="url(#paint7_radial_2539_415)"></path> <path d="M41.7379 38.2308C41.7379 38.5771 42.0139 38.8493 42.3653 38.8493H55.4414C55.7866 38.8493 56.0689 38.5771 56.0689 38.2308V26.9366C56.0689 26.5903 55.7866 26.3181 55.4414 26.3181H42.3653C42.0139 26.3181 41.7379 26.5903 41.7379 26.9366V38.2308ZM42.9928 27.5552H54.814V37.6122H53.2327C53.057 36.7896 52.6493 36.0226 52.0281 35.4165C51.1873 34.5939 50.0768 34.1424 48.9033 34.1424C47.7237 34.1424 46.6132 34.5939 45.7723 35.4165C45.1574 36.0226 44.7433 36.7895 44.5739 37.6122H42.9926L42.9928 27.5552Z" fill="black"></path> <path d="M48.8969 33.48C50.3338 33.48 51.5008 32.3357 51.5008 30.9193C51.5008 29.5091 50.3338 28.3586 48.8969 28.3586C47.4663 28.3586 46.2992 29.5091 46.2992 30.9193C46.2992 32.3357 47.4663 33.48 48.8969 33.48Z" fill="url(#paint8_radial_2539_415)"></path> <path d="M48.8969 33.48C50.3338 33.48 51.5008 32.3357 51.5008 30.9193C51.5008 29.5091 50.3338 28.3586 48.8969 28.3586C47.4663 28.3586 46.2992 29.5091 46.2992 30.9193C46.2992 32.3357 47.4663 33.48 48.8969 33.48Z" fill="black"></path> <path d="M42.5097 60.7628H38.9395V52.6108H25.0665V60.7628H21.49C21.1449 60.7628 20.8625 61.035 20.8625 61.3813C20.8625 61.7215 21.1449 61.9999 21.49 61.9999H42.5095C42.8609 61.9999 43.137 61.7215 43.137 61.3813C43.1371 61.035 42.8611 60.7628 42.5097 60.7628Z" fill="url(#paint9_radial_2539_415)"></path> <path d="M42.5097 60.7628H38.9395V52.6108H25.0665V60.7628H21.49C21.1449 60.7628 20.8625 61.035 20.8625 61.3813C20.8625 61.7215 21.1449 61.9999 21.49 61.9999H42.5095C42.8609 61.9999 43.137 61.7215 43.137 61.3813C43.1371 61.035 42.8611 60.7628 42.5097 60.7628Z" fill="black"></path> <path d="M32 13.6754C35.8274 13.6754 38.9396 10.6077 38.9396 6.84081C38.9396 3.06791 35.8275 0 32 0C28.1788 0 25.0666 3.06791 25.0666 6.84081C25.0666 10.6075 28.1788 13.6754 32 13.6754ZM32.0017 4.22222C33.4656 4.22222 34.6561 5.39583 34.6561 6.83849C34.6561 7.18011 34.3755 7.45701 34.0287 7.45701C33.6818 7.45701 33.4012 7.18011 33.4012 6.83849C33.4012 6.07804 32.7731 5.45926 32.0017 5.45926C31.6548 5.45926 31.3742 5.18236 31.3742 4.84074C31.3742 4.49912 31.6548 4.22222 32.0017 4.22222Z" fill="url(#paint10_radial_2539_415)"></path> <path d="M32 13.6754C35.8274 13.6754 38.9396 10.6077 38.9396 6.84081C38.9396 3.06791 35.8275 0 32 0C28.1788 0 25.0666 3.06791 25.0666 6.84081C25.0666 10.6075 28.1788 13.6754 32 13.6754ZM32.0017 4.22222C33.4656 4.22222 34.6561 5.39583 34.6561 6.83849C34.6561 7.18011 34.3755 7.45701 34.0287 7.45701C33.6818 7.45701 33.4012 7.18011 33.4012 6.83849C33.4012 6.07804 32.7731 5.45926 32.0017 5.45926C31.6548 5.45926 31.3742 5.18236 31.3742 4.84074C31.3742 4.49912 31.6548 4.22222 32.0017 4.22222Z" fill="black"></path> <defs> <radialGradient id="paint0_radial_2539_415" cx="0" cy="0" r="1" gradientUnits="userSpaceOnUse" gradientTransform="translate(64 51.3743) rotate(-144.797) scale(78.3241 100.369)"> <stop stop-color="#23C0AD"></stop> <stop offset="1" stop-color="#4C50CC"></stop> </radialGradient> <radialGradient id="paint1_radial_2539_415" cx="0" cy="0" r="1" gradientUnits="userSpaceOnUse" gradientTransform="translate(22.2687 23.1016) rotate(-138.834) scale(19.037 25.663)"> <stop stop-color="#23C0AD"></stop> <stop offset="1" stop-color="#4C50CC"></stop> </radialGradient> <radialGradient id="paint2_radial_2539_415" cx="0" cy="0" r="1" gradientUnits="userSpaceOnUse" gradientTransform="translate(17.707 17.7326) rotate(-135.481) scale(7.30406 9.93377)"> <stop stop-color="#23C0AD"></stop> <stop offset="1" stop-color="#4C50CC"></stop> </radialGradient> <radialGradient id="paint3_radial_2539_415" cx="0" cy="0" r="1" gradientUnits="userSpaceOnUse" gradientTransform="translate(22.2687 38.8493) rotate(-138.833) scale(19.037 25.6632)"> <stop stop-color="#23C0AD"></stop> <stop offset="1" stop-color="#4C50CC"></stop> </radialGradient> <radialGradient id="paint4_radial_2539_415" cx="0" cy="0" r="1" gradientUnits="userSpaceOnUse" gradientTransform="translate(17.7007 33.48) rotate(-135.445) scale(7.29969 9.92801)"> <stop stop-color="#23C0AD"></stop> <stop offset="1" stop-color="#4C50CC"></stop> </radialGradient> <radialGradient id="paint5_radial_2539_415" cx="0" cy="0" r="1" gradientUnits="userSpaceOnUse" gradientTransform="translate(56.0689 23.1016) rotate(-138.834) scale(19.037 25.663)"> <stop stop-color="#23C0AD"></stop> <stop offset="1" stop-color="#4C50CC"></stop> </radialGradient> <radialGradient id="paint6_radial_2539_415" cx="0" cy="0" r="1" gradientUnits="userSpaceOnUse" gradientTransform="translate(51.5008 17.7326) rotate(-135.446) scale(7.2996 9.92789)"> <stop stop-color="#23C0AD"></stop> <stop offset="1" stop-color="#4C50CC"></stop> </radialGradient> <radialGradient id="paint7_radial_2539_415" cx="0" cy="0" r="1" gradientUnits="userSpaceOnUse" gradientTransform="translate(56.0689 38.8493) rotate(-138.833) scale(19.037 25.6632)"> <stop stop-color="#23C0AD"></stop> <stop offset="1" stop-color="#4C50CC"></stop> </radialGradient> <radialGradient id="paint8_radial_2539_415" cx="0" cy="0" r="1" gradientUnits="userSpaceOnUse" gradientTransform="translate(51.5008 33.48) rotate(-135.445) scale(7.29969 9.92801)"> <stop stop-color="#23C0AD"></stop> <stop offset="1" stop-color="#4C50CC"></stop> </radialGradient> <radialGradient id="paint9_radial_2539_415" cx="0" cy="0" r="1" gradientUnits="userSpaceOnUse" gradientTransform="translate(43.137 61.9999) rotate(-157.144) scale(24.1724 23.5368)"> <stop stop-color="#23C0AD"></stop> <stop offset="1" stop-color="#4C50CC"></stop> </radialGradient> <radialGradient id="paint10_radial_2539_415" cx="0" cy="0" r="1" gradientUnits="userSpaceOnUse" gradientTransform="translate(38.9396 13.6754) rotate(-135.411) scale(19.4802 26.4947)"> <stop stop-color="#23C0AD"></stop> <stop offset="1" stop-color="#4C50CC"></stop> </radialGradient> </defs> </svg> 