<svg width="10" height="13" viewBox="0 0 10 13" fill="none" xmlns="http://www.w3.org/2000/svg">
<path fill-rule="evenodd" clip-rule="evenodd" d="M3.71241 6.2369L3.85111 6.35643L3.71241 6.47596C2.24949 7.73635 1.03317 9.2573 0.125246 10.9615C-0.231042 11.6304 0.211292 12.4458 0.966177 12.5118L1.83525 12.5878C3.74277 12.7545 5.66126 12.7545 7.56879 12.5878L8.4379 12.5118C9.19274 12.4458 9.63507 11.6304 9.27881 10.9615C8.37085 9.2573 7.15458 7.73635 5.69161 6.47596L5.55289 6.35643L5.69161 6.2369C7.15458 4.97646 8.37085 3.45551 9.27881 1.75125C9.63507 1.08248 9.19274 0.267068 8.4379 0.201071L7.56879 0.125083C5.66126 -0.041698 3.74277 -0.0416904 1.83525 0.125083L0.966177 0.201071C0.211292 0.267068 -0.231042 1.08248 0.125246 1.75126C1.03317 3.45551 2.24949 4.97646 3.71241 6.2369ZM4.70199 4.69018C4.55465 4.69018 4.4134 4.63166 4.3092 4.52751L2.82813 3.04638C2.66928 2.88753 2.62177 2.64864 2.70773 2.44109C2.79371 2.23355 2.99622 2.09823 3.22087 2.09823H6.18313C6.40774 2.09823 6.61027 2.23355 6.69625 2.44109C6.78223 2.64864 6.73469 2.88753 6.57584 3.04638L5.09474 4.52751C4.99054 4.63166 4.84929 4.69018 4.70199 4.69018ZM4.70199 8.02268C4.55465 8.02268 4.4134 8.08115 4.3092 8.18535L2.82813 9.66649C2.66928 9.82534 2.62177 10.0642 2.70773 10.2717C2.79371 10.4793 2.99622 10.6146 3.22087 10.6146H6.18313C6.40774 10.6146 6.61027 10.4793 6.69625 10.2717C6.78223 10.0642 6.73469 9.82534 6.57584 9.66649L5.09474 8.18535C4.99054 8.08115 4.84929 8.02268 4.70199 8.02268Z" fill="url(#paint0_radial_2529_314)"/>
<defs>
<radialGradient id="paint0_radial_2529_314" cx="0" cy="0" r="1" gradientUnits="userSpaceOnUse" gradientTransform="translate(9.40402 12.7128) rotate(-126.491) scale(15.813 20.5675)">
<stop stop-color="#23C0AD"/>
<stop offset="1" stop-color="#4C50CC"/>
</radialGradient>
</defs>
</svg>
